<svg xmlns="http://www.w3.org/2000/svg" version="1.1" xmlns:xlink="http://www.w3.org/1999/xlink" xmlns:svgjs="http://svgjs.com/svgjs" width="1400" height="500" preserveAspectRatio="none" viewBox="0 0 1400 500"><g mask="url(&quot;#SvgjsMask1032&quot;)" fill="none"><path d="M34 500L534 0L703.5 0L203.5 500z" fill="url(#SvgjsLinearGradient1033)"></path><path d="M356 500L856 0L1043.5 0L543.5 500z" fill="url(#SvgjsLinearGradient1033)"></path><path d="M672 500L1172 0L1571 0L1071 500z" fill="url(#SvgjsLinearGradient1033)"></path><path d="M1385 500L885 0L723 0L1223 500z" fill="url(#SvgjsLinearGradient1034)"></path><path d="M1053 500L553 0L437.5 0L937.5 500z" fill="url(#SvgjsLinearGradient1034)"></path><path d="M731 500L231 0L78 0L578 500z" fill="url(#SvgjsLinearGradient1034)"></path><path d="M967.8632519047454 500L1400 67.86325190474543L1400 500z" fill="url(#SvgjsLinearGradient1033)"></path><path d="M0 500L432.1367480952546 500L 0 67.86325190474543z" fill="url(#SvgjsLinearGradient1034)"></path></g><defs><mask id="SvgjsMask1032"><rect width="1400" height="500" fill="#ffffff"></rect></mask><linearGradient x1="0%" y1="100%" x2="100%" y2="0%" id="SvgjsLinearGradient1033"><stop stop-color="rgba(67, 184, 131, 1)" offset="0"></stop><stop stop-opacity="0" stop-color="rgba(67, 184, 131, 1)" offset="0.66"></stop></linearGradient><linearGradient x1="100%" y1="100%" x2="0%" y2="0%" id="SvgjsLinearGradient1034"><stop stop-color="rgba(67, 184, 131, 1)" offset="0"></stop><stop stop-opacity="0" stop-color="rgba(67, 184, 131, 1)" offset="0.66"></stop></linearGradient></defs></svg>